<svg id="Layer_1" version="1.1" viewBox="0 0 512 512" xml:space="preserve" xmlns="http://www.w3.org/2000/svg"><style/><path d="M256 13C121.8 13 13 121.8 13 256c0 49.1 14.6 94.9 39.7 133.1l-31.3 106 110.1-30.5c36.4 21.8 79 34.3 124.5 34.3 134.2 0 243-108.8 243-243C499 121.8 390.2 13 256 13z" fill="#25d366"/><path d="M389.5 322.7c-.3-3.2-2.2-6-5.1-7.3-19.6-9-39.3-18-58.9-27-2.2-1-4.9-.5-6.5 1.4l-26.6 30c-2.1 2.4-5.4 3.2-8.3 2-13.8-5.7-32.4-15.3-51.2-31.5-22.5-19.3-35.7-40-43.1-53.5 3.7-2.5 13.8-10 18.3-23.9 0-.1.1-.2.1-.2 2.8-8.6 2.2-17.9-.9-26.4-5.3-14.1-15.9-41.4-20-45.6-.7-.7-1.5-1.4-1.5-1.4-3-2.7-6.9-4.2-11-4.4-1.4-.1-2.9-.1-4.5-.1-4.6-.1-8.7-.1-11.7.3-8.5 1.2-14.7 6.9-18.6 11.7-4.7 5.7-10.3 14.2-14 25.4-.3 1-.6 1.9-.9 2.9-4.1 14.2-3.3 29.4 1.6 43.4 4.6 13.1 11.3 28.7 21.4 45.2 17.1 28.1 35.7 45.5 48.3 57 14.2 13.1 31.8 29.2 59.7 42.6 25.8 12.4 49.2 17 64.9 18.9 6.4.6 18.2.7 31.7-4.4 6.2-2.4 11.4-5.3 15.6-8.4 11.1-7.9 18.9-19.8 20.9-33.2v-.3c.7-5.1.6-9.5.3-13.2z" fill="#fff"/></svg>